<svg xmlns="http://www.w3.org/2000/svg" viewBox="0 0 1400 1000" font-family="Consolas, monospace">
  <defs>
    <marker id="dim" markerWidth="8" markerHeight="8" refX="4" refY="4" orient="auto">
      <path d="M0,0 L8,4 L0,8 Z" fill="#58a6ff"/>
    </marker>
    <marker id="dimR" markerWidth="8" markerHeight="8" refX="4" refY="4" orient="auto-start-reverse">
      <path d="M0,0 L8,4 L0,8 Z" fill="#58a6ff"/>
    </marker>
    <pattern id="grid2" width="10" height="10" patternUnits="userSpaceOnUse">
      <path d="M 10 0 L 0 0 0 10" fill="none" stroke="#151d28" stroke-width="0.3"/>
    </pattern>
    <pattern id="hatch" width="6" height="6" patternUnits="userSpaceOnUse" patternTransform="rotate(45)">
      <line x1="0" y1="0" x2="0" y2="6" stroke="#1e3a5f" stroke-width="0.5"/>
    </pattern>
  </defs>

  <rect width="1400" height="1000" fill="#0d1117"/>
  <rect width="1400" height="1000" fill="url(#grid2)"/>

  <!-- Title Block -->
  <rect x="20" y="20" width="1360" height="55" rx="4" fill="#161b22" stroke="#30363d"/>
  <text x="40" y="48" fill="#58a6ff" font-size="17" font-weight="bold">CATCHER HUD RECEIVER — MECHANICAL ASSEMBLY DRAWING</text>
  <text x="40" y="65" fill="#8b949e" font-size="10">All dimensions in mm | Scale: ~3:1 | Tolerance ±0.5mm | Rev 2.0</text>
  <text x="1200" y="48" fill="#8b949e" font-size="10">SHEET 2/4</text>
  <text x="1200" y="65" fill="#8b949e" font-size="10">Feb 2026</text>

  <!-- ============================================================ -->
  <!-- VIEW 1: TOP VIEW — Electronics Module Assembly -->
  <!-- ============================================================ -->
  <text x="80" y="115" fill="#58a6ff" font-size="14" font-weight="bold">VIEW A: TOP VIEW — ELECTRONICS MODULE</text>

  <!-- XIAO nRF52840 top outline -->
  <rect x="120" y="150" width="252" height="178" rx="4" fill="url(#hatch)" stroke="#58a6ff" stroke-width="1.5"/>
  <text x="246" y="170" fill="#58a6ff" font-size="10" text-anchor="middle">XIAO nRF52840</text>

  <!-- USB-C cutout -->
  <rect x="210" y="318" width="84" height="18" rx="6" fill="#0d1117" stroke="#8b949e" stroke-width="1"/>
  <text x="252" y="332" fill="#8b949e" font-size="8" text-anchor="middle">USB-C</text>

  <!-- Component markers on XIAO -->
  <rect x="140" y="185" width="36" height="24" rx="2" fill="none" stroke="#f39c12" stroke-width="1" stroke-dasharray="2,2"/>
  <text x="158" y="200" fill="#f39c12" font-size="7" text-anchor="middle">nRF52840</text>

  <circle cx="320" cy="195" r="8" fill="none" stroke="#2ecc71" stroke-width="1"/>
  <text x="320" y="198" fill="#2ecc71" font-size="6" text-anchor="middle">ANT</text>

  <!-- Battery alongside XIAO -->
  <rect x="390" y="155" width="120" height="50" rx="3" fill="#3d1f1f" stroke="#e74c3c" stroke-width="1.5"/>
  <text x="450" y="178" fill="#e74c3c" font-size="9" text-anchor="middle">501230 LiPo</text>
  <text x="450" y="190" fill="#8b949e" font-size="8" text-anchor="middle">150mAh</text>

  <!-- Battery wires -->
  <path d="M390,170 L375,170 L375,245" stroke="#e74c3c" stroke-width="1.5" fill="none"/>
  <circle cx="375" cy="245" r="3" fill="#e74c3c"/>
  <text x="362" y="250" fill="#e74c3c" font-size="7" text-anchor="end">BAT+</text>

  <path d="M390,185 L380,185 L380,260" stroke="#8b949e" stroke-width="1.5" fill="none"/>
  <circle cx="380" cy="260" r="3" fill="#8b949e"/>
  <text x="362" y="265" fill="#8b949e" font-size="7" text-anchor="end">BAT-</text>

  <!-- DIMENSIONS — XIAO width -->
  <line x1="120" y1="135" x2="120" y2="145" stroke="#58a6ff" stroke-width="0.5"/>
  <line x1="372" y1="135" x2="372" y2="145" stroke="#58a6ff" stroke-width="0.5"/>
  <line x1="120" y1="140" x2="372" y2="140" stroke="#58a6ff" stroke-width="0.8" marker-start="url(#dimR)" marker-end="url(#dim)"/>
  <text x="246" y="136" fill="#58a6ff" font-size="10" text-anchor="middle">21.0</text>

  <!-- DIMENSIONS — XIAO length -->
  <line x1="100" y1="150" x2="110" y2="150" stroke="#58a6ff" stroke-width="0.5"/>
  <line x1="100" y1="328" x2="110" y2="328" stroke="#58a6ff" stroke-width="0.5"/>
  <line x1="105" y1="150" x2="105" y2="328" stroke="#58a6ff" stroke-width="0.8" marker-start="url(#dimR)" marker-end="url(#dim)"/>
  <text x="95" y="240" fill="#58a6ff" font-size="10" text-anchor="middle" transform="rotate(-90,95,240)">17.8</text>

  <!-- DIMENSIONS — Battery -->
  <line x1="390" y1="142" x2="390" y2="150" stroke="#e74c3c" stroke-width="0.5"/>
  <line x1="510" y1="142" x2="510" y2="150" stroke="#e74c3c" stroke-width="0.5"/>
  <line x1="390" y1="146" x2="510" y2="146" stroke="#e74c3c" stroke-width="0.8" marker-start="url(#dimR)" marker-end="url(#dim)"/>
  <text x="450" y="142" fill="#e74c3c" font-size="9" text-anchor="middle">12.0</text>

  <line x1="520" y1="155" x2="530" y2="155" stroke="#e74c3c" stroke-width="0.5"/>
  <line x1="520" y1="205" x2="530" y2="205" stroke="#e74c3c" stroke-width="0.5"/>
  <line x1="525" y1="155" x2="525" y2="205" stroke="#e74c3c" stroke-width="0.8" marker-start="url(#dimR)" marker-end="url(#dim)"/>
  <text x="540" y="183" fill="#e74c3c" font-size="9">30.0</text>

  <!-- I2C Tether exit point -->
  <circle cx="358" cy="195" r="6" fill="none" stroke="#2ecc71" stroke-width="1.5"/>
  <path d="M364,195 L540,195" stroke="#2ecc71" stroke-width="2" stroke-dasharray="6,3"/>
  <text x="545" y="198" fill="#2ecc71" font-size="9">I2C TETHER →</text>
  <text x="545" y="210" fill="#8b949e" font-size="8">4× 30AWG silicone</text>
  <text x="545" y="222" fill="#8b949e" font-size="8">75-100mm to display</text>

  <!-- ============================================================ -->
  <!-- VIEW 2: SIDE VIEW — Stack Profile -->
  <!-- ============================================================ -->
  <text x="80" y="400" fill="#58a6ff" font-size="14" font-weight="bold">VIEW B: SIDE VIEW — STACK PROFILE</text>

  <!-- XIAO PCB -->
  <rect x="120" y="430" width="252" height="14" rx="1" fill="#1a3050" stroke="#58a6ff" stroke-width="1.5"/>
  <text x="246" y="440" fill="#58a6ff" font-size="8" text-anchor="middle">XIAO nRF52840 PCB (1.2mm)</text>

  <!-- B2B connector space -->
  <rect x="160" y="444" width="170" height="16" rx="1" fill="#2a2020" stroke="#f39c12" stroke-width="1" stroke-dasharray="3,2"/>
  <text x="245" y="456" fill="#f39c12" font-size="7" text-anchor="middle">B2B CONNECTOR (1.5mm)</text>

  <!-- Wio-SX1262 PCB -->
  <rect x="120" y="460" width="252" height="14" rx="1" fill="#2a1f00" stroke="#f39c12" stroke-width="1.5"/>
  <text x="246" y="470" fill="#f39c12" font-size="8" text-anchor="middle">Wio-SX1262 PCB (1.2mm)</text>

  <!-- Components on top of XIAO (top side) -->
  <rect x="140" y="420" width="40" height="10" rx="1" fill="#333" stroke="#8b949e" stroke-width="0.5"/>
  <text x="160" y="428" fill="#8b949e" font-size="6" text-anchor="middle">MCU</text>

  <!-- SX1262 chip on Wio bottom -->
  <rect x="180" y="474" width="30" height="8" rx="1" fill="#333" stroke="#f39c12" stroke-width="0.5"/>
  <text x="195" y="480" fill="#f39c12" font-size="5" text-anchor="middle">SX1262</text>

  <!-- U.FL connector -->
  <rect x="330" y="474" width="12" height="8" rx="1" fill="#f39c12" stroke="#f39c12" stroke-width="0.5"/>
  <text x="336" y="495" fill="#f39c12" font-size="7" text-anchor="middle">U.FL</text>

  <!-- Battery (side view, next to stack) -->
  <rect x="390" y="424" width="120" height="50" rx="2" fill="#3d1f1f" stroke="#e74c3c" stroke-width="1.5"/>
  <text x="450" y="453" fill="#e74c3c" font-size="9" text-anchor="middle">BATTERY</text>

  <!-- STACK HEIGHT DIMENSIONS -->
  <line x1="100" y1="420" x2="110" y2="420" stroke="#58a6ff" stroke-width="0.5"/>
  <line x1="100" y1="482" x2="110" y2="482" stroke="#58a6ff" stroke-width="0.5"/>
  <line x1="105" y1="420" x2="105" y2="482" stroke="#58a6ff" stroke-width="0.8" marker-start="url(#dimR)" marker-end="url(#dim)"/>
  <text x="82" y="455" fill="#58a6ff" font-size="10">~12</text>

  <!-- Individual layers -->
  <line x1="388" y1="430" x2="398" y2="430" stroke="#58a6ff" stroke-width="0.3"/>
  <line x1="388" y1="444" x2="398" y2="444" stroke="#58a6ff" stroke-width="0.3"/>
  <text x="402" y="440" fill="#8b949e" font-size="7">1.2mm XIAO</text>

  <line x1="388" y1="460" x2="398" y2="460" stroke="#58a6ff" stroke-width="0.3"/>
  <text x="402" y="456" fill="#8b949e" font-size="7">1.5mm B2B gap</text>

  <line x1="388" y1="474" x2="398" y2="474" stroke="#58a6ff" stroke-width="0.3"/>
  <text x="402" y="470" fill="#8b949e" font-size="7">1.2mm Wio-SX1262</text>

  <!-- Battery height -->
  <line x1="520" y1="424" x2="530" y2="424" stroke="#e74c3c" stroke-width="0.5"/>
  <line x1="520" y1="474" x2="530" y2="474" stroke="#e74c3c" stroke-width="0.5"/>
  <line x1="525" y1="424" x2="525" y2="474" stroke="#e74c3c" stroke-width="0.8" marker-start="url(#dimR)" marker-end="url(#dim)"/>
  <text x="540" y="453" fill="#e74c3c" font-size="9">5.0</text>

  <!-- ============================================================ -->
  <!-- VIEW 3: ENCLOSURE — Shapr3D Dimensional Spec -->
  <!-- ============================================================ -->
  <text x="680" y="115" fill="#58a6ff" font-size="14" font-weight="bold">VIEW C: ENCLOSURE — EXTERNAL DIMENSIONS</text>
  <text x="680" y="132" fill="#8b949e" font-size="10">(Shapr3D / STEP export reference)</text>

  <!-- Outer enclosure — top view -->
  <rect x="700" y="155" width="300" height="220" rx="8" fill="none" stroke="#c9d1d9" stroke-width="2"/>

  <!-- Inner cavity -->
  <rect x="710" y="165" width="280" height="200" rx="6" fill="url(#hatch)" stroke="#c9d1d9" stroke-width="0.5" stroke-dasharray="4,2"/>

  <!-- Components inside -->
  <rect x="720" y="175" width="168" height="118" rx="3" fill="none" stroke="#58a6ff" stroke-width="1" stroke-dasharray="3,2"/>
  <text x="804" y="240" fill="#58a6ff" font-size="9" text-anchor="middle">XIAO + Wio STACK</text>

  <rect x="900" y="175" width="80" height="36" rx="2" fill="none" stroke="#e74c3c" stroke-width="1" stroke-dasharray="3,2"/>
  <text x="940" y="197" fill="#e74c3c" font-size="8" text-anchor="middle">BATTERY</text>

  <!-- Port cutouts -->
  <rect x="770" y="360" width="56" height="10" rx="4" fill="#0d1117" stroke="#8b949e" stroke-width="1"/>
  <text x="798" y="386" fill="#8b949e" font-size="8" text-anchor="middle">USB-C port</text>

  <circle cx="900" cy="180" r="5" fill="#0d1117" stroke="#2ecc71" stroke-width="1"/>
  <text x="912" y="175" fill="#2ecc71" font-size="7">I2C port</text>

  <circle cx="730" cy="300" r="5" fill="#0d1117" stroke="#f39c12" stroke-width="1"/>
  <text x="742" y="305" fill="#f39c12" font-size="7">U.FL port</text>

  <!-- ENCLOSURE OUTER DIMENSIONS -->
  <line x1="700" y1="140" x2="700" y2="150" stroke="#58a6ff" stroke-width="0.5"/>
  <line x1="1000" y1="140" x2="1000" y2="150" stroke="#58a6ff" stroke-width="0.5"/>
  <line x1="700" y1="145" x2="1000" y2="145" stroke="#58a6ff" stroke-width="0.8" marker-start="url(#dimR)" marker-end="url(#dim)"/>
  <text x="850" y="141" fill="#58a6ff" font-size="11" text-anchor="middle">25.0</text>

  <line x1="1015" y1="155" x2="1025" y2="155" stroke="#58a6ff" stroke-width="0.5"/>
  <line x1="1015" y1="375" x2="1025" y2="375" stroke="#58a6ff" stroke-width="0.5"/>
  <line x1="1020" y1="155" x2="1020" y2="375" stroke="#58a6ff" stroke-width="0.8" marker-start="url(#dimR)" marker-end="url(#dim)"/>
  <text x="1040" y="268" fill="#58a6ff" font-size="11">22.0</text>

  <!-- DEPTH callout -->
  <rect x="720" y="315" width="100" height="30" rx="3" fill="#161b22" stroke="#58a6ff"/>
  <text x="770" y="332" fill="#58a6ff" font-size="10" text-anchor="middle">H: 18.0mm</text>
  <text x="770" y="342" fill="#8b949e" font-size="7" text-anchor="middle">(1.2mm walls × 2 + 15.6 cavity)</text>

  <!-- Snap-fit tab locations -->
  <rect x="698" y="240" width="6" height="20" rx="1" fill="#c9d1d9"/>
  <rect x="997" y="240" width="6" height="20" rx="1" fill="#c9d1d9"/>
  <text x="688" y="255" fill="#8b949e" font-size="7" text-anchor="end">snap</text>
  <text x="1010" y="255" fill="#8b949e" font-size="7">snap</text>

  <!-- Gasket groove -->
  <rect x="703" y="158" width="294" height="214" rx="6" fill="none" stroke="#2ecc71" stroke-width="0.5" stroke-dasharray="2,2"/>
  <text x="850" y="398" fill="#2ecc71" font-size="8" text-anchor="middle">⬤ 0.8mm silicone gasket groove</text>

  <!-- ============================================================ -->
  <!-- VIEW 4: MASK MOUNTING LAYOUT -->
  <!-- ============================================================ -->
  <text x="680" y="430" fill="#58a6ff" font-size="14" font-weight="bold">VIEW D: ALL-STAR FM25 MASK — MOUNTING LAYOUT</text>

  <!-- Simplified mask front view -->
  <!-- Cage bars -->
  <g stroke="#555" stroke-width="3" fill="none">
    <!-- Outer frame -->
    <path d="M850,470 C750,480 700,550 700,640 C700,730 750,790 850,800 C950,790 1000,730 1000,640 C1000,550 950,480 850,470"/>
    <!-- Horizontal bars -->
    <line x1="720" y1="540" x2="980" y2="540"/>
    <line x1="710" y1="600" x2="990" y2="600"/>
    <line x1="710" y1="660" x2="990" y2="660"/>
    <line x1="720" y1="720" x2="980" y2="720"/>
    <!-- Vertical bars -->
    <line x1="800" y1="480" x2="780" y2="790"/>
    <line x1="900" y1="480" x2="920" y2="790"/>
    <!-- Center vertical -->
    <line x1="850" y1="470" x2="850" y2="800"/>
  </g>

  <!-- Eyes (viewing areas) -->
  <ellipse cx="810" cy="570" rx="35" ry="20" fill="none" stroke="#2ecc71" stroke-width="1.5" stroke-dasharray="4,3"/>
  <text x="810" y="575" fill="#2ecc71" font-size="7" text-anchor="middle">LEFT EYE</text>
  <ellipse cx="890" cy="570" rx="35" ry="20" fill="none" stroke="#2ecc71" stroke-width="1.5" stroke-dasharray="4,3"/>
  <text x="890" y="575" fill="#2ecc71" font-size="7" text-anchor="middle">RIGHT EYE</text>

  <!-- DISPLAY POSITION — top center bar -->
  <rect x="830" y="528" width="40" height="18" rx="2" fill="#2ecc71" opacity="0.3" stroke="#2ecc71" stroke-width="2"/>
  <text x="850" y="541" fill="#2ecc71" font-size="8" font-weight="bold" text-anchor="middle">OLED</text>
  <path d="M850,546 L850,555" stroke="#2ecc71" stroke-width="1" marker-end="url(#arrowG)"/>
  <text x="850" y="522" fill="#2ecc71" font-size="8" text-anchor="middle">↑ Upper peripheral</text>

  <!-- ELECTRONICS MODULE — forehead area -->
  <rect x="810" y="475" width="80" height="40" rx="4" fill="#58a6ff" opacity="0.2" stroke="#58a6ff" stroke-width="2"/>
  <text x="850" y="492" fill="#58a6ff" font-size="8" font-weight="bold" text-anchor="middle">XIAO+Wio</text>
  <text x="850" y="504" fill="#58a6ff" font-size="7" text-anchor="middle">+ BATTERY</text>
  <text x="850" y="462" fill="#8b949e" font-size="8" text-anchor="middle">Behind forehead pad</text>

  <!-- I2C TETHER route -->
  <path d="M850,515 L850,528" stroke="#2ecc71" stroke-width="2" stroke-dasharray="4,2"/>
  <text x="870" y="522" fill="#2ecc71" font-size="7">I2C ~30mm</text>

  <!-- ANTENNA route — along top shell -->
  <path d="M810,485 C750,465 700,460 680,480 C660,500 660,540 670,570" stroke="#f39c12" stroke-width="2.5" stroke-dasharray="6,3"/>
  <text x="690" y="455" fill="#f39c12" font-size="8">FLEX ANTENNA</text>
  <text x="690" y="467" fill="#8b949e" font-size="7">Inside shell top</text>
  <text x="690" y="479" fill="#8b949e" font-size="7">79mm adhesive mount</text>

  <!-- Direction to dugout -->
  <path d="M680,590 L640,590" stroke="#f39c12" stroke-width="1.5" marker-end="url(#arrowO)"/>
  <text x="625" y="585" fill="#f39c12" font-size="8" text-anchor="end">→ DUGOUT</text>
  <text x="625" y="597" fill="#8b949e" font-size="7" text-anchor="end">RF path to coach TX</text>

  <!-- ============================================================ -->
  <!-- BOM CALLOUT -->
  <!-- ============================================================ -->
  <rect x="20" y="850" width="1360" height="130" rx="6" fill="#161b22" stroke="#30363d"/>
  <text x="40" y="875" fill="#58a6ff" font-size="12" font-weight="bold">BILL OF MATERIALS — MECHANICAL</text>
  <line x1="30" y1="882" x2="1370" y2="882" stroke="#30363d"/>

  <g fill="#c9d1d9" font-size="10">
    <text x="40" y="900">① Seeed XIAO nRF52840</text>
    <text x="40" y="916">② Wio-SX1262 LoRa module</text>
    <text x="40" y="932">③ HiLetgo 0.49" SSD1306 OLED</text>
    <text x="40" y="948">④ 501230 LiPo 150mAh 3.7V</text>
    <text x="40" y="964">⑤ Molex 105262-0002 flex ant.</text>

    <text x="340" y="900">⑥ 30AWG silicone wire (4-color)</text>
    <text x="340" y="916">⑦ 1/8" PET braided sleeving</text>
    <text x="340" y="932">⑧ 1.5mm adhesive heat shrink</text>
    <text x="340" y="948">⑨ MG Chemicals 422B conformal coat</text>
    <text x="340" y="964">⑩ 2mm EVA foam pad (dampener)</text>

    <text x="700" y="900">⑪ SLA resin enclosure (25×22×18mm)</text>
    <text x="700" y="916">⑫ 0.8mm silicone O-ring gasket</text>
    <text x="700" y="932">⑬ 0.5mm polycarbonate lens (display)</text>
    <text x="700" y="948">⑭ SLA resin cage clip bracket</text>
    <text x="700" y="964">⑮ 5mm Kapton tape (wire securing)</text>

    <text x="1060" y="900" fill="#8b949e">Total weight: ~22g</text>
    <text x="1060" y="916" fill="#8b949e">Total dims: 25×22×18mm</text>
    <text x="1060" y="932" fill="#8b949e">(main module only)</text>
  </g>

  <rect x="5" y="5" width="1390" height="990" rx="4" fill="none" stroke="#30363d" stroke-width="2"/>
</svg>